<svg width="133" height="64" viewBox="0 0 133 64" fill="none" xmlns="http://www.w3.org/2000/svg">
<path fill-rule="evenodd" clip-rule="evenodd" d="M73.9368 10.5883V20.1669L77.5811 20.2535C79.5855 20.3012 83.7665 20.3414 86.8724 20.3427C93.6926 20.3457 98.264 20.5191 99.2771 20.8133C100.797 21.2546 102.35 22.2417 103.961 23.7907C105.164 24.9467 106.01 26.1089 107.012 27.9797L107.688 29.2408L107.688 34.9494C107.688 38.089 107.727 45.7619 107.775 52L107.862 63.3422H117.573H127.284L127.192 46.2797L127.1 29.2171L113.027 15.1135L98.9548 1.00977H86.4459H73.9368V10.5883ZM20.6182 10.989V20.5737L31.8795 20.6453C38.0732 20.6846 43.6168 20.7749 44.1987 20.8459C48.5497 21.3776 52.8773 25.3971 53.9129 29.8689C54.2492 31.3212 54.3647 36.5469 54.367 50.422L54.3691 63.6052H63.9559H73.5428V46.4766V29.3481L59.5891 15.3762L45.6354 1.40427H33.1268H20.6182V10.989ZM0 42.3674V63.9997H10.1121H20.2243V42.3674V20.7352H10.1121H0V42.3674Z" fill="white"/>
<circle cx="127.44" cy="5.59844" r="4.38009" stroke="white" stroke-width="0.417152"/>
<path d="M128.548 7L127.509 5.21668H126.821V7H126.251V2.63868H127.659C127.989 2.63868 128.266 2.69499 128.491 2.80762C128.721 2.92026 128.892 3.07252 129.005 3.26441C129.117 3.4563 129.173 3.6753 129.173 3.92142C129.173 4.22177 129.086 4.48666 128.911 4.71609C128.74 4.94553 128.481 5.09779 128.135 5.17288L129.23 7H128.548ZM126.821 4.75989H127.659C127.968 4.75989 128.199 4.68481 128.354 4.53463C128.508 4.38029 128.585 4.17588 128.585 3.92142C128.585 3.66279 128.508 3.46255 128.354 3.32072C128.204 3.17889 127.972 3.10797 127.659 3.10797H126.821V4.75989Z" fill="white"/>
</svg>
