<svg width="50" height="50" viewBox="0 0 50 50" fill="none" xmlns="http://www.w3.org/2000/svg">
<circle cx="25" cy="25" r="25" fill="#1E2024"/>
<path d="M35 26.5C35.8284 26.5 36.5 25.8284 36.5 25C36.5 24.1716 35.8284 23.5 35 23.5L35 26.5ZM13.9393 23.9393C13.3536 24.5251 13.3536 25.4749 13.9393 26.0607L23.4853 35.6066C24.0711 36.1924 25.0208 36.1924 25.6066 35.6066C26.1924 35.0208 26.1924 34.0711 25.6066 33.4853L17.1213 25L25.6066 16.5147C26.1924 15.9289 26.1924 14.9792 25.6066 14.3934C25.0208 13.8076 24.0711 13.8076 23.4853 14.3934L13.9393 23.9393ZM35 23.5L15 23.5L15 26.5L35 26.5L35 23.5Z" fill="white"/>
</svg>
